<svg xmlns="http://www.w3.org/2000/svg" viewBox="0 0 128 128" fill="none">
  <defs>
    <linearGradient id="manta" x1="64" y1="20" x2="64" y2="118" gradientUnits="userSpaceOnUse">
      <stop offset="0" stop-color="#ffae6b"/>
      <stop offset="1" stop-color="#ff7a2f"/>
    </linearGradient>
  </defs>
  <path fill="url(#manta)" d="M64 37
    C64 30 67 24 71 23
    C73 23 75 27 75 34
    C84 35 104 40 119 61
    C104 60 86 66 72 86
    C70 96 67 106 64 118
    C61 106 58 96 56 86
    C42 66 24 60 9 61
    C24 40 44 35 53 34
    C53 27 55 23 57 23
    C61 24 64 30 64 37
    Z"/>
</svg>
